<mxfile host="app.diagrams.net" agent="Mozilla/5.0 (Windows NT 10.0; Win64; x64) AppleWebKit/537.36 (KHTML, like Gecko) Chrome/134.0.0.0 Safari/537.36" version="26.1.3">
  <diagram name="Page-1" id="XKaKeg3_LZE-wqKATpvr">
    <mxGraphModel dx="934" dy="500" grid="1" gridSize="10" guides="1" tooltips="1" connect="1" arrows="1" fold="1" page="1" pageScale="1" pageWidth="827" pageHeight="1169" math="0" shadow="0">
      <root>
        <mxCell id="0" />
        <mxCell id="1" parent="0" />
        <mxCell id="FsqVde5HYdob05ir-yt6-8" value="Applicant" style="swimlane;fontStyle=1;align=center;verticalAlign=top;childLayout=stackLayout;horizontal=1;startSize=30.4;horizontalStack=0;resizeParent=1;resizeParentMax=0;resizeLast=0;collapsible=0;marginBottom=0;" vertex="1" parent="1">
          <mxGeometry x="977" y="170" width="286" height="308.4" as="geometry" />
        </mxCell>
        <mxCell id="FsqVde5HYdob05ir-yt6-9" value="-userID: string" style="text;strokeColor=none;fillColor=none;align=left;verticalAlign=top;spacingLeft=4;spacingRight=4;overflow=hidden;rotatable=0;points=[[0,0.5],[1,0.5]];portConstraint=eastwest;" vertex="1" parent="FsqVde5HYdob05ir-yt6-8">
          <mxGeometry y="30.4" width="286" height="30" as="geometry" />
        </mxCell>
        <mxCell id="FsqVde5HYdob05ir-yt6-10" value="-password: string" style="text;strokeColor=none;fillColor=none;align=left;verticalAlign=top;spacingLeft=4;spacingRight=4;overflow=hidden;rotatable=0;points=[[0,0.5],[1,0.5]];portConstraint=eastwest;" vertex="1" parent="FsqVde5HYdob05ir-yt6-8">
          <mxGeometry y="60.4" width="286" height="30" as="geometry" />
        </mxCell>
        <mxCell id="FsqVde5HYdob05ir-yt6-11" value="-age: int" style="text;strokeColor=none;fillColor=none;align=left;verticalAlign=top;spacingLeft=4;spacingRight=4;overflow=hidden;rotatable=0;points=[[0,0.5],[1,0.5]];portConstraint=eastwest;" vertex="1" parent="FsqVde5HYdob05ir-yt6-8">
          <mxGeometry y="90.4" width="286" height="30" as="geometry" />
        </mxCell>
        <mxCell id="FsqVde5HYdob05ir-yt6-12" value="-userGroup: boolean" style="text;strokeColor=none;fillColor=none;align=left;verticalAlign=top;spacingLeft=4;spacingRight=4;overflow=hidden;rotatable=0;points=[[0,0.5],[1,0.5]];portConstraint=eastwest;" vertex="1" parent="FsqVde5HYdob05ir-yt6-8">
          <mxGeometry y="120.4" width="286" height="30" as="geometry" />
        </mxCell>
        <mxCell id="FsqVde5HYdob05ir-yt6-13" style="line;strokeWidth=1;fillColor=none;align=left;verticalAlign=middle;spacingTop=-1;spacingLeft=3;spacingRight=3;rotatable=0;labelPosition=right;points=[];portConstraint=eastwest;strokeColor=inherit;" vertex="1" parent="FsqVde5HYdob05ir-yt6-8">
          <mxGeometry y="150.4" width="286" height="8" as="geometry" />
        </mxCell>
        <mxCell id="FsqVde5HYdob05ir-yt6-14" value="+viewOpenProject()" style="text;strokeColor=none;fillColor=none;align=left;verticalAlign=top;spacingLeft=4;spacingRight=4;overflow=hidden;rotatable=0;points=[[0,0.5],[1,0.5]];portConstraint=eastwest;" vertex="1" parent="FsqVde5HYdob05ir-yt6-8">
          <mxGeometry y="158.4" width="286" height="30" as="geometry" />
        </mxCell>
        <mxCell id="FsqVde5HYdob05ir-yt6-15" value="+applyProject()" style="text;strokeColor=none;fillColor=none;align=left;verticalAlign=top;spacingLeft=4;spacingRight=4;overflow=hidden;rotatable=0;points=[[0,0.5],[1,0.5]];portConstraint=eastwest;" vertex="1" parent="FsqVde5HYdob05ir-yt6-8">
          <mxGeometry y="188.4" width="286" height="30" as="geometry" />
        </mxCell>
        <mxCell id="FsqVde5HYdob05ir-yt6-16" value="+viewApplicationStatus()" style="text;strokeColor=none;fillColor=none;align=left;verticalAlign=top;spacingLeft=4;spacingRight=4;overflow=hidden;rotatable=0;points=[[0,0.5],[1,0.5]];portConstraint=eastwest;" vertex="1" parent="FsqVde5HYdob05ir-yt6-8">
          <mxGeometry y="218.4" width="286" height="30" as="geometry" />
        </mxCell>
        <mxCell id="FsqVde5HYdob05ir-yt6-17" value="+requestWithdrawal()" style="text;strokeColor=none;fillColor=none;align=left;verticalAlign=top;spacingLeft=4;spacingRight=4;overflow=hidden;rotatable=0;points=[[0,0.5],[1,0.5]];portConstraint=eastwest;" vertex="1" parent="FsqVde5HYdob05ir-yt6-8">
          <mxGeometry y="248.4" width="286" height="30" as="geometry" />
        </mxCell>
        <mxCell id="FsqVde5HYdob05ir-yt6-18" value="+submitEnquiry(enquiry: string)" style="text;strokeColor=none;fillColor=none;align=left;verticalAlign=top;spacingLeft=4;spacingRight=4;overflow=hidden;rotatable=0;points=[[0,0.5],[1,0.5]];portConstraint=eastwest;" vertex="1" parent="FsqVde5HYdob05ir-yt6-8">
          <mxGeometry y="278.4" width="286" height="30" as="geometry" />
        </mxCell>
        <mxCell id="FsqVde5HYdob05ir-yt6-19" value="Project" style="swimlane;fontStyle=1;align=center;verticalAlign=top;childLayout=stackLayout;horizontal=1;startSize=29.818181818181817;horizontalStack=0;resizeParent=1;resizeParentMax=0;resizeLast=0;collapsible=0;marginBottom=0;" vertex="1" parent="1">
          <mxGeometry x="1040" y="869" width="299" height="337.8181818181818" as="geometry" />
        </mxCell>
        <mxCell id="FsqVde5HYdob05ir-yt6-20" value="-visibility: boolean" style="text;strokeColor=none;fillColor=none;align=left;verticalAlign=top;spacingLeft=4;spacingRight=4;overflow=hidden;rotatable=0;points=[[0,0.5],[1,0.5]];portConstraint=eastwest;" vertex="1" parent="FsqVde5HYdob05ir-yt6-19">
          <mxGeometry y="29.818181818181817" width="299" height="30" as="geometry" />
        </mxCell>
        <mxCell id="FsqVde5HYdob05ir-yt6-21" value="-projectName: string" style="text;strokeColor=none;fillColor=none;align=left;verticalAlign=top;spacingLeft=4;spacingRight=4;overflow=hidden;rotatable=0;points=[[0,0.5],[1,0.5]];portConstraint=eastwest;" vertex="1" parent="FsqVde5HYdob05ir-yt6-19">
          <mxGeometry y="59.81818181818181" width="299" height="30" as="geometry" />
        </mxCell>
        <mxCell id="FsqVde5HYdob05ir-yt6-22" value="-neighborhood: string" style="text;strokeColor=none;fillColor=none;align=left;verticalAlign=top;spacingLeft=4;spacingRight=4;overflow=hidden;rotatable=0;points=[[0,0.5],[1,0.5]];portConstraint=eastwest;" vertex="1" parent="FsqVde5HYdob05ir-yt6-19">
          <mxGeometry y="89.81818181818181" width="299" height="30" as="geometry" />
        </mxCell>
        <mxCell id="FsqVde5HYdob05ir-yt6-23" value="-flatTypes: list" style="text;strokeColor=none;fillColor=none;align=left;verticalAlign=top;spacingLeft=4;spacingRight=4;overflow=hidden;rotatable=0;points=[[0,0.5],[1,0.5]];portConstraint=eastwest;" vertex="1" parent="FsqVde5HYdob05ir-yt6-19">
          <mxGeometry y="119.81818181818181" width="299" height="30" as="geometry" />
        </mxCell>
        <mxCell id="FsqVde5HYdob05ir-yt6-24" value="-numberOfUnits: map" style="text;strokeColor=none;fillColor=none;align=left;verticalAlign=top;spacingLeft=4;spacingRight=4;overflow=hidden;rotatable=0;points=[[0,0.5],[1,0.5]];portConstraint=eastwest;" vertex="1" parent="FsqVde5HYdob05ir-yt6-19">
          <mxGeometry y="149.8181818181818" width="299" height="30" as="geometry" />
        </mxCell>
        <mxCell id="FsqVde5HYdob05ir-yt6-25" value="-applicationOpenDate: date" style="text;strokeColor=none;fillColor=none;align=left;verticalAlign=top;spacingLeft=4;spacingRight=4;overflow=hidden;rotatable=0;points=[[0,0.5],[1,0.5]];portConstraint=eastwest;" vertex="1" parent="FsqVde5HYdob05ir-yt6-19">
          <mxGeometry y="179.8181818181818" width="299" height="30" as="geometry" />
        </mxCell>
        <mxCell id="FsqVde5HYdob05ir-yt6-26" value="-applicationCloseDate: date" style="text;strokeColor=none;fillColor=none;align=left;verticalAlign=top;spacingLeft=4;spacingRight=4;overflow=hidden;rotatable=0;points=[[0,0.5],[1,0.5]];portConstraint=eastwest;" vertex="1" parent="FsqVde5HYdob05ir-yt6-19">
          <mxGeometry y="209.8181818181818" width="299" height="30" as="geometry" />
        </mxCell>
        <mxCell id="FsqVde5HYdob05ir-yt6-27" value="-managerInCharge: HDBManager" style="text;strokeColor=none;fillColor=none;align=left;verticalAlign=top;spacingLeft=4;spacingRight=4;overflow=hidden;rotatable=0;points=[[0,0.5],[1,0.5]];portConstraint=eastwest;" vertex="1" parent="FsqVde5HYdob05ir-yt6-19">
          <mxGeometry y="239.8181818181818" width="299" height="30" as="geometry" />
        </mxCell>
        <mxCell id="FsqVde5HYdob05ir-yt6-28" style="line;strokeWidth=1;fillColor=none;align=left;verticalAlign=middle;spacingTop=-1;spacingLeft=3;spacingRight=3;rotatable=0;labelPosition=right;points=[];portConstraint=eastwest;strokeColor=inherit;" vertex="1" parent="FsqVde5HYdob05ir-yt6-19">
          <mxGeometry y="269.8181818181818" width="299" height="8" as="geometry" />
        </mxCell>
        <mxCell id="FsqVde5HYdob05ir-yt6-29" value="-availableOfficerSlots: int(max 10)" style="text;strokeColor=none;fillColor=none;align=left;verticalAlign=top;spacingLeft=4;spacingRight=4;overflow=hidden;rotatable=0;points=[[0,0.5],[1,0.5]];portConstraint=eastwest;" vertex="1" parent="FsqVde5HYdob05ir-yt6-19">
          <mxGeometry y="277.8181818181818" width="299" height="30" as="geometry" />
        </mxCell>
        <mxCell id="FsqVde5HYdob05ir-yt6-30" value="+toggleVisibility(status: boolean)" style="text;strokeColor=none;fillColor=none;align=left;verticalAlign=top;spacingLeft=4;spacingRight=4;overflow=hidden;rotatable=0;points=[[0,0.5],[1,0.5]];portConstraint=eastwest;" vertex="1" parent="FsqVde5HYdob05ir-yt6-19">
          <mxGeometry y="307.8181818181818" width="299" height="30" as="geometry" />
        </mxCell>
        <mxCell id="FsqVde5HYdob05ir-yt6-31" value="Application" style="swimlane;fontStyle=1;align=center;verticalAlign=top;childLayout=stackLayout;horizontal=1;startSize=44.8;horizontalStack=0;resizeParent=1;resizeParentMax=0;resizeLast=0;collapsible=0;marginBottom=0;" vertex="1" parent="1">
          <mxGeometry x="1240" y="604" width="166" height="111.8" as="geometry" />
        </mxCell>
        <mxCell id="FsqVde5HYdob05ir-yt6-32" value="-status: string" style="text;strokeColor=none;fillColor=none;align=left;verticalAlign=top;spacingLeft=4;spacingRight=4;overflow=hidden;rotatable=0;points=[[0,0.5],[1,0.5]];portConstraint=eastwest;" vertex="1" parent="FsqVde5HYdob05ir-yt6-31">
          <mxGeometry y="44.8" width="166" height="45" as="geometry" />
        </mxCell>
        <mxCell id="FsqVde5HYdob05ir-yt6-33" style="line;strokeWidth=1;fillColor=none;align=left;verticalAlign=middle;spacingTop=-1;spacingLeft=3;spacingRight=3;rotatable=0;labelPosition=right;points=[];portConstraint=eastwest;strokeColor=inherit;" vertex="1" parent="FsqVde5HYdob05ir-yt6-31">
          <mxGeometry y="89.8" width="166" height="22" as="geometry" />
        </mxCell>
        <mxCell id="FsqVde5HYdob05ir-yt6-34" value="Enquiry" style="swimlane;fontStyle=1;align=center;verticalAlign=top;childLayout=stackLayout;horizontal=1;startSize=36.8;horizontalStack=0;resizeParent=1;resizeParentMax=0;resizeLast=0;collapsible=0;marginBottom=0;" vertex="1" parent="1">
          <mxGeometry x="119" y="1423" width="323" height="192.8" as="geometry" />
        </mxCell>
        <mxCell id="FsqVde5HYdob05ir-yt6-35" value="-question: string" style="text;strokeColor=none;fillColor=none;align=left;verticalAlign=top;spacingLeft=4;spacingRight=4;overflow=hidden;rotatable=0;points=[[0,0.5],[1,0.5]];portConstraint=eastwest;" vertex="1" parent="FsqVde5HYdob05ir-yt6-34">
          <mxGeometry y="36.8" width="323" height="37" as="geometry" />
        </mxCell>
        <mxCell id="FsqVde5HYdob05ir-yt6-36" style="line;strokeWidth=1;fillColor=none;align=left;verticalAlign=middle;spacingTop=-1;spacingLeft=3;spacingRight=3;rotatable=0;labelPosition=right;points=[];portConstraint=eastwest;strokeColor=inherit;" vertex="1" parent="FsqVde5HYdob05ir-yt6-34">
          <mxGeometry y="73.8" width="323" height="8" as="geometry" />
        </mxCell>
        <mxCell id="FsqVde5HYdob05ir-yt6-37" value="+editEnquiry(updatedMessage: string)" style="text;strokeColor=none;fillColor=none;align=left;verticalAlign=top;spacingLeft=4;spacingRight=4;overflow=hidden;rotatable=0;points=[[0,0.5],[1,0.5]];portConstraint=eastwest;" vertex="1" parent="FsqVde5HYdob05ir-yt6-34">
          <mxGeometry y="81.8" width="323" height="37" as="geometry" />
        </mxCell>
        <mxCell id="FsqVde5HYdob05ir-yt6-38" value="+delEnquiry()" style="text;strokeColor=none;fillColor=none;align=left;verticalAlign=top;spacingLeft=4;spacingRight=4;overflow=hidden;rotatable=0;points=[[0,0.5],[1,0.5]];portConstraint=eastwest;" vertex="1" parent="FsqVde5HYdob05ir-yt6-34">
          <mxGeometry y="118.8" width="323" height="37" as="geometry" />
        </mxCell>
        <mxCell id="FsqVde5HYdob05ir-yt6-39" value="+viewEnquiry()" style="text;strokeColor=none;fillColor=none;align=left;verticalAlign=top;spacingLeft=4;spacingRight=4;overflow=hidden;rotatable=0;points=[[0,0.5],[1,0.5]];portConstraint=eastwest;" vertex="1" parent="FsqVde5HYdob05ir-yt6-34">
          <mxGeometry y="155.8" width="323" height="37" as="geometry" />
        </mxCell>
        <mxCell id="FsqVde5HYdob05ir-yt6-40" value="HDBOfficer" style="swimlane;fontStyle=1;align=center;verticalAlign=top;childLayout=stackLayout;horizontal=1;startSize=33.142857142857146;horizontalStack=0;resizeParent=1;resizeParentMax=0;resizeLast=0;collapsible=0;marginBottom=0;" vertex="1" parent="1">
          <mxGeometry x="227" y="206" width="355" height="239.14285714285714" as="geometry" />
        </mxCell>
        <mxCell id="FsqVde5HYdob05ir-yt6-41" value="-assignedProject: boolean" style="text;strokeColor=none;fillColor=none;align=left;verticalAlign=top;spacingLeft=4;spacingRight=4;overflow=hidden;rotatable=0;points=[[0,0.5],[1,0.5]];portConstraint=eastwest;" vertex="1" parent="FsqVde5HYdob05ir-yt6-40">
          <mxGeometry y="33.142857142857146" width="355" height="33" as="geometry" />
        </mxCell>
        <mxCell id="FsqVde5HYdob05ir-yt6-42" style="line;strokeWidth=1;fillColor=none;align=left;verticalAlign=middle;spacingTop=-1;spacingLeft=3;spacingRight=3;rotatable=0;labelPosition=right;points=[];portConstraint=eastwest;strokeColor=inherit;" vertex="1" parent="FsqVde5HYdob05ir-yt6-40">
          <mxGeometry y="66.14285714285714" width="355" height="8" as="geometry" />
        </mxCell>
        <mxCell id="FsqVde5HYdob05ir-yt6-43" value="+viewApplications()" style="text;strokeColor=none;fillColor=none;align=left;verticalAlign=top;spacingLeft=4;spacingRight=4;overflow=hidden;rotatable=0;points=[[0,0.5],[1,0.5]];portConstraint=eastwest;" vertex="1" parent="FsqVde5HYdob05ir-yt6-40">
          <mxGeometry y="74.14285714285714" width="355" height="33" as="geometry" />
        </mxCell>
        <mxCell id="FsqVde5HYdob05ir-yt6-44" value="+registerforProject(ProjectId: string)" style="text;strokeColor=none;fillColor=none;align=left;verticalAlign=top;spacingLeft=4;spacingRight=4;overflow=hidden;rotatable=0;points=[[0,0.5],[1,0.5]];portConstraint=eastwest;" vertex="1" parent="FsqVde5HYdob05ir-yt6-40">
          <mxGeometry y="107.14285714285714" width="355" height="33" as="geometry" />
        </mxCell>
        <mxCell id="FsqVde5HYdob05ir-yt6-45" value="+viewRegistrationStatus()" style="text;strokeColor=none;fillColor=none;align=left;verticalAlign=top;spacingLeft=4;spacingRight=4;overflow=hidden;rotatable=0;points=[[0,0.5],[1,0.5]];portConstraint=eastwest;" vertex="1" parent="FsqVde5HYdob05ir-yt6-40">
          <mxGeometry y="140.14285714285714" width="355" height="33" as="geometry" />
        </mxCell>
        <mxCell id="FsqVde5HYdob05ir-yt6-46" value="+generateReceipt(applicantNRIC: string)" style="text;strokeColor=none;fillColor=none;align=left;verticalAlign=top;spacingLeft=4;spacingRight=4;overflow=hidden;rotatable=0;points=[[0,0.5],[1,0.5]];portConstraint=eastwest;" vertex="1" parent="FsqVde5HYdob05ir-yt6-40">
          <mxGeometry y="173.14285714285714" width="355" height="33" as="geometry" />
        </mxCell>
        <mxCell id="FsqVde5HYdob05ir-yt6-47" value="+bookFlat(applicantNRIC: string)" style="text;strokeColor=none;fillColor=none;align=left;verticalAlign=top;spacingLeft=4;spacingRight=4;overflow=hidden;rotatable=0;points=[[0,0.5],[1,0.5]];portConstraint=eastwest;" vertex="1" parent="FsqVde5HYdob05ir-yt6-40">
          <mxGeometry y="206.14285714285714" width="355" height="33" as="geometry" />
        </mxCell>
        <mxCell id="FsqVde5HYdob05ir-yt6-48" value="Receipt" style="swimlane;fontStyle=1;align=center;verticalAlign=top;childLayout=stackLayout;horizontal=1;startSize=32;horizontalStack=0;resizeParent=1;resizeParentMax=0;resizeLast=0;collapsible=0;marginBottom=0;" vertex="1" parent="1">
          <mxGeometry x="236" y="532" width="217" height="264" as="geometry" />
        </mxCell>
        <mxCell id="FsqVde5HYdob05ir-yt6-49" value="-applicantName: string" style="text;strokeColor=none;fillColor=none;align=left;verticalAlign=top;spacingLeft=4;spacingRight=4;overflow=hidden;rotatable=0;points=[[0,0.5],[1,0.5]];portConstraint=eastwest;" vertex="1" parent="FsqVde5HYdob05ir-yt6-48">
          <mxGeometry y="32" width="217" height="32" as="geometry" />
        </mxCell>
        <mxCell id="FsqVde5HYdob05ir-yt6-50" value="-applicantNRIC: string" style="text;strokeColor=none;fillColor=none;align=left;verticalAlign=top;spacingLeft=4;spacingRight=4;overflow=hidden;rotatable=0;points=[[0,0.5],[1,0.5]];portConstraint=eastwest;" vertex="1" parent="FsqVde5HYdob05ir-yt6-48">
          <mxGeometry y="64" width="217" height="32" as="geometry" />
        </mxCell>
        <mxCell id="FsqVde5HYdob05ir-yt6-51" value="-age: int" style="text;strokeColor=none;fillColor=none;align=left;verticalAlign=top;spacingLeft=4;spacingRight=4;overflow=hidden;rotatable=0;points=[[0,0.5],[1,0.5]];portConstraint=eastwest;" vertex="1" parent="FsqVde5HYdob05ir-yt6-48">
          <mxGeometry y="96" width="217" height="32" as="geometry" />
        </mxCell>
        <mxCell id="FsqVde5HYdob05ir-yt6-52" value="-maritalStatus: string" style="text;strokeColor=none;fillColor=none;align=left;verticalAlign=top;spacingLeft=4;spacingRight=4;overflow=hidden;rotatable=0;points=[[0,0.5],[1,0.5]];portConstraint=eastwest;" vertex="1" parent="FsqVde5HYdob05ir-yt6-48">
          <mxGeometry y="128" width="217" height="32" as="geometry" />
        </mxCell>
        <mxCell id="FsqVde5HYdob05ir-yt6-53" value="-flatType: string" style="text;strokeColor=none;fillColor=none;align=left;verticalAlign=top;spacingLeft=4;spacingRight=4;overflow=hidden;rotatable=0;points=[[0,0.5],[1,0.5]];portConstraint=eastwest;" vertex="1" parent="FsqVde5HYdob05ir-yt6-48">
          <mxGeometry y="160" width="217" height="32" as="geometry" />
        </mxCell>
        <mxCell id="FsqVde5HYdob05ir-yt6-54" value="-projectID: string" style="text;strokeColor=none;fillColor=none;align=left;verticalAlign=top;spacingLeft=4;spacingRight=4;overflow=hidden;rotatable=0;points=[[0,0.5],[1,0.5]];portConstraint=eastwest;" vertex="1" parent="FsqVde5HYdob05ir-yt6-48">
          <mxGeometry y="192" width="217" height="32" as="geometry" />
        </mxCell>
        <mxCell id="FsqVde5HYdob05ir-yt6-55" style="line;strokeWidth=1;fillColor=none;align=left;verticalAlign=middle;spacingTop=-1;spacingLeft=3;spacingRight=3;rotatable=0;labelPosition=right;points=[];portConstraint=eastwest;strokeColor=inherit;" vertex="1" parent="FsqVde5HYdob05ir-yt6-48">
          <mxGeometry y="224" width="217" height="8" as="geometry" />
        </mxCell>
        <mxCell id="FsqVde5HYdob05ir-yt6-56" value="+printReceipt()" style="text;strokeColor=none;fillColor=none;align=left;verticalAlign=top;spacingLeft=4;spacingRight=4;overflow=hidden;rotatable=0;points=[[0,0.5],[1,0.5]];portConstraint=eastwest;" vertex="1" parent="FsqVde5HYdob05ir-yt6-48">
          <mxGeometry y="232" width="217" height="32" as="geometry" />
        </mxCell>
        <mxCell id="FsqVde5HYdob05ir-yt6-57" value="Registration" style="swimlane;fontStyle=1;align=center;verticalAlign=top;childLayout=stackLayout;horizontal=1;startSize=35.55555555555556;horizontalStack=0;resizeParent=1;resizeParentMax=0;resizeLast=0;collapsible=0;marginBottom=0;" vertex="1" parent="1">
          <mxGeometry x="503" y="580" width="207" height="161.55555555555554" as="geometry" />
        </mxCell>
        <mxCell id="FsqVde5HYdob05ir-yt6-58" value="-officerNRIC: string" style="text;strokeColor=none;fillColor=none;align=left;verticalAlign=top;spacingLeft=4;spacingRight=4;overflow=hidden;rotatable=0;points=[[0,0.5],[1,0.5]];portConstraint=eastwest;" vertex="1" parent="FsqVde5HYdob05ir-yt6-57">
          <mxGeometry y="35.55555555555556" width="207" height="36" as="geometry" />
        </mxCell>
        <mxCell id="FsqVde5HYdob05ir-yt6-59" value="-projectID: string" style="text;strokeColor=none;fillColor=none;align=left;verticalAlign=top;spacingLeft=4;spacingRight=4;overflow=hidden;rotatable=0;points=[[0,0.5],[1,0.5]];portConstraint=eastwest;" vertex="1" parent="FsqVde5HYdob05ir-yt6-57">
          <mxGeometry y="71.55555555555556" width="207" height="36" as="geometry" />
        </mxCell>
        <mxCell id="FsqVde5HYdob05ir-yt6-60" value="-status: string" style="text;strokeColor=none;fillColor=none;align=left;verticalAlign=top;spacingLeft=4;spacingRight=4;overflow=hidden;rotatable=0;points=[[0,0.5],[1,0.5]];portConstraint=eastwest;" vertex="1" parent="FsqVde5HYdob05ir-yt6-57">
          <mxGeometry y="107.55555555555556" width="207" height="36" as="geometry" />
        </mxCell>
        <mxCell id="FsqVde5HYdob05ir-yt6-61" style="line;strokeWidth=1;fillColor=none;align=left;verticalAlign=middle;spacingTop=-1;spacingLeft=3;spacingRight=3;rotatable=0;labelPosition=right;points=[];portConstraint=eastwest;strokeColor=inherit;" vertex="1" parent="FsqVde5HYdob05ir-yt6-57">
          <mxGeometry y="143.55555555555554" width="207" height="18" as="geometry" />
        </mxCell>
        <mxCell id="FsqVde5HYdob05ir-yt6-62" value="Flat" style="swimlane;fontStyle=1;align=center;verticalAlign=top;childLayout=stackLayout;horizontal=1;startSize=34.666666666666664;horizontalStack=0;resizeParent=1;resizeParentMax=0;resizeLast=0;collapsible=0;marginBottom=0;" vertex="1" parent="1">
          <mxGeometry x="669" y="1411" width="272" height="217.66666666666666" as="geometry" />
        </mxCell>
        <mxCell id="FsqVde5HYdob05ir-yt6-63" value="-flatType: string" style="text;strokeColor=none;fillColor=none;align=left;verticalAlign=top;spacingLeft=4;spacingRight=4;overflow=hidden;rotatable=0;points=[[0,0.5],[1,0.5]];portConstraint=eastwest;" vertex="1" parent="FsqVde5HYdob05ir-yt6-62">
          <mxGeometry y="34.666666666666664" width="272" height="35" as="geometry" />
        </mxCell>
        <mxCell id="FsqVde5HYdob05ir-yt6-64" value="-booked: boolean" style="text;strokeColor=none;fillColor=none;align=left;verticalAlign=top;spacingLeft=4;spacingRight=4;overflow=hidden;rotatable=0;points=[[0,0.5],[1,0.5]];portConstraint=eastwest;" vertex="1" parent="FsqVde5HYdob05ir-yt6-62">
          <mxGeometry y="69.66666666666666" width="272" height="35" as="geometry" />
        </mxCell>
        <mxCell id="FsqVde5HYdob05ir-yt6-65" value="-applicantNRIC: string" style="text;strokeColor=none;fillColor=none;align=left;verticalAlign=top;spacingLeft=4;spacingRight=4;overflow=hidden;rotatable=0;points=[[0,0.5],[1,0.5]];portConstraint=eastwest;" vertex="1" parent="FsqVde5HYdob05ir-yt6-62">
          <mxGeometry y="104.66666666666666" width="272" height="35" as="geometry" />
        </mxCell>
        <mxCell id="FsqVde5HYdob05ir-yt6-66" style="line;strokeWidth=1;fillColor=none;align=left;verticalAlign=middle;spacingTop=-1;spacingLeft=3;spacingRight=3;rotatable=0;labelPosition=right;points=[];portConstraint=eastwest;strokeColor=inherit;" vertex="1" parent="FsqVde5HYdob05ir-yt6-62">
          <mxGeometry y="139.66666666666666" width="272" height="8" as="geometry" />
        </mxCell>
        <mxCell id="FsqVde5HYdob05ir-yt6-67" value="+bookFlat(applicantNRIC: string)" style="text;strokeColor=none;fillColor=none;align=left;verticalAlign=top;spacingLeft=4;spacingRight=4;overflow=hidden;rotatable=0;points=[[0,0.5],[1,0.5]];portConstraint=eastwest;" vertex="1" parent="FsqVde5HYdob05ir-yt6-62">
          <mxGeometry y="147.66666666666666" width="272" height="35" as="geometry" />
        </mxCell>
        <mxCell id="FsqVde5HYdob05ir-yt6-68" value="+isBooked(status: boolean)" style="text;strokeColor=none;fillColor=none;align=left;verticalAlign=top;spacingLeft=4;spacingRight=4;overflow=hidden;rotatable=0;points=[[0,0.5],[1,0.5]];portConstraint=eastwest;" vertex="1" parent="FsqVde5HYdob05ir-yt6-62">
          <mxGeometry y="182.66666666666666" width="272" height="35" as="geometry" />
        </mxCell>
        <mxCell id="FsqVde5HYdob05ir-yt6-69" value="OfficerEnquiry" style="swimlane;fontStyle=1;align=center;verticalAlign=top;childLayout=stackLayout;horizontal=1;startSize=47.2;horizontalStack=0;resizeParent=1;resizeParentMax=0;resizeLast=0;collapsible=0;marginBottom=0;" vertex="1" parent="1">
          <mxGeometry x="50" y="974" width="303" height="102.2" as="geometry" />
        </mxCell>
        <mxCell id="FsqVde5HYdob05ir-yt6-70" style="line;strokeWidth=1;fillColor=none;align=left;verticalAlign=middle;spacingTop=-1;spacingLeft=3;spacingRight=3;rotatable=0;labelPosition=right;points=[];portConstraint=eastwest;strokeColor=inherit;" vertex="1" parent="FsqVde5HYdob05ir-yt6-69">
          <mxGeometry y="47.2" width="303" height="8" as="geometry" />
        </mxCell>
        <mxCell id="FsqVde5HYdob05ir-yt6-71" value="+replyEnquiry(response: string)" style="text;strokeColor=none;fillColor=none;align=left;verticalAlign=top;spacingLeft=4;spacingRight=4;overflow=hidden;rotatable=0;points=[[0,0.5],[1,0.5]];portConstraint=eastwest;" vertex="1" parent="FsqVde5HYdob05ir-yt6-69">
          <mxGeometry y="55.2" width="303" height="47" as="geometry" />
        </mxCell>
        <mxCell id="FsqVde5HYdob05ir-yt6-72" value="OfficerProject" style="swimlane;fontStyle=1;align=center;verticalAlign=top;childLayout=stackLayout;horizontal=1;startSize=45.333333333333336;horizontalStack=0;resizeParent=1;resizeParentMax=0;resizeLast=0;collapsible=0;marginBottom=0;" vertex="1" parent="1">
          <mxGeometry x="830" y="592" width="361" height="143.33333333333334" as="geometry" />
        </mxCell>
        <mxCell id="FsqVde5HYdob05ir-yt6-73" value="-remainingFlats: int" style="text;strokeColor=none;fillColor=none;align=left;verticalAlign=top;spacingLeft=4;spacingRight=4;overflow=hidden;rotatable=0;points=[[0,0.5],[1,0.5]];portConstraint=eastwest;" vertex="1" parent="FsqVde5HYdob05ir-yt6-72">
          <mxGeometry y="45.333333333333336" width="361" height="45" as="geometry" />
        </mxCell>
        <mxCell id="FsqVde5HYdob05ir-yt6-74" style="line;strokeWidth=1;fillColor=none;align=left;verticalAlign=middle;spacingTop=-1;spacingLeft=3;spacingRight=3;rotatable=0;labelPosition=right;points=[];portConstraint=eastwest;strokeColor=inherit;" vertex="1" parent="FsqVde5HYdob05ir-yt6-72">
          <mxGeometry y="90.33333333333334" width="361" height="8" as="geometry" />
        </mxCell>
        <mxCell id="FsqVde5HYdob05ir-yt6-75" value="+updateNoOfFlatsLeft(numberLeft: int)" style="text;strokeColor=none;fillColor=none;align=left;verticalAlign=top;spacingLeft=4;spacingRight=4;overflow=hidden;rotatable=0;points=[[0,0.5],[1,0.5]];portConstraint=eastwest;" vertex="1" parent="FsqVde5HYdob05ir-yt6-72">
          <mxGeometry y="98.33333333333334" width="361" height="45" as="geometry" />
        </mxCell>
        <mxCell id="FsqVde5HYdob05ir-yt6-76" value="HDBManager" style="swimlane;fontStyle=1;align=center;verticalAlign=top;childLayout=stackLayout;horizontal=1;startSize=27.36842105263158;horizontalStack=0;resizeParent=1;resizeParentMax=0;resizeLast=0;collapsible=0;marginBottom=0;" vertex="1" parent="1">
          <mxGeometry x="1113" y="1255" width="441" height="521.3684210526316" as="geometry" />
        </mxCell>
        <mxCell id="FsqVde5HYdob05ir-yt6-77" value="-managerID: string" style="text;strokeColor=none;fillColor=none;align=left;verticalAlign=top;spacingLeft=4;spacingRight=4;overflow=hidden;rotatable=0;points=[[0,0.5],[1,0.5]];portConstraint=eastwest;" vertex="1" parent="FsqVde5HYdob05ir-yt6-76">
          <mxGeometry y="27.36842105263158" width="441" height="27" as="geometry" />
        </mxCell>
        <mxCell id="FsqVde5HYdob05ir-yt6-78" value="-password: string" style="text;strokeColor=none;fillColor=none;align=left;verticalAlign=top;spacingLeft=4;spacingRight=4;overflow=hidden;rotatable=0;points=[[0,0.5],[1,0.5]];portConstraint=eastwest;" vertex="1" parent="FsqVde5HYdob05ir-yt6-76">
          <mxGeometry y="54.368421052631575" width="441" height="27" as="geometry" />
        </mxCell>
        <mxCell id="FsqVde5HYdob05ir-yt6-79" style="line;strokeWidth=1;fillColor=none;align=left;verticalAlign=middle;spacingTop=-1;spacingLeft=3;spacingRight=3;rotatable=0;labelPosition=right;points=[];portConstraint=eastwest;strokeColor=inherit;" vertex="1" parent="FsqVde5HYdob05ir-yt6-76">
          <mxGeometry y="81.36842105263158" width="441" height="8" as="geometry" />
        </mxCell>
        <mxCell id="FsqVde5HYdob05ir-yt6-80" value="+createProject()" style="text;strokeColor=none;fillColor=none;align=left;verticalAlign=top;spacingLeft=4;spacingRight=4;overflow=hidden;rotatable=0;points=[[0,0.5],[1,0.5]];portConstraint=eastwest;" vertex="1" parent="FsqVde5HYdob05ir-yt6-76">
          <mxGeometry y="89.36842105263158" width="441" height="27" as="geometry" />
        </mxCell>
        <mxCell id="FsqVde5HYdob05ir-yt6-81" value="+editProject()" style="text;strokeColor=none;fillColor=none;align=left;verticalAlign=top;spacingLeft=4;spacingRight=4;overflow=hidden;rotatable=0;points=[[0,0.5],[1,0.5]];portConstraint=eastwest;" vertex="1" parent="FsqVde5HYdob05ir-yt6-76">
          <mxGeometry y="116.36842105263158" width="441" height="27" as="geometry" />
        </mxCell>
        <mxCell id="FsqVde5HYdob05ir-yt6-82" value="+deleteProject()" style="text;strokeColor=none;fillColor=none;align=left;verticalAlign=top;spacingLeft=4;spacingRight=4;overflow=hidden;rotatable=0;points=[[0,0.5],[1,0.5]];portConstraint=eastwest;" vertex="1" parent="FsqVde5HYdob05ir-yt6-76">
          <mxGeometry y="143.36842105263156" width="441" height="27" as="geometry" />
        </mxCell>
        <mxCell id="FsqVde5HYdob05ir-yt6-83" value="+toggleProjectVisibility(status: boolean)" style="text;strokeColor=none;fillColor=none;align=left;verticalAlign=top;spacingLeft=4;spacingRight=4;overflow=hidden;rotatable=0;points=[[0,0.5],[1,0.5]];portConstraint=eastwest;" vertex="1" parent="FsqVde5HYdob05ir-yt6-76">
          <mxGeometry y="170.36842105263156" width="441" height="27" as="geometry" />
        </mxCell>
        <mxCell id="FsqVde5HYdob05ir-yt6-84" value="+viewCreatedProjects()" style="text;strokeColor=none;fillColor=none;align=left;verticalAlign=top;spacingLeft=4;spacingRight=4;overflow=hidden;rotatable=0;points=[[0,0.5],[1,0.5]];portConstraint=eastwest;" vertex="1" parent="FsqVde5HYdob05ir-yt6-76">
          <mxGeometry y="197.36842105263156" width="441" height="27" as="geometry" />
        </mxCell>
        <mxCell id="FsqVde5HYdob05ir-yt6-85" value="+filterProjects()" style="text;strokeColor=none;fillColor=none;align=left;verticalAlign=top;spacingLeft=4;spacingRight=4;overflow=hidden;rotatable=0;points=[[0,0.5],[1,0.5]];portConstraint=eastwest;" vertex="1" parent="FsqVde5HYdob05ir-yt6-76">
          <mxGeometry y="224.36842105263156" width="441" height="27" as="geometry" />
        </mxCell>
        <mxCell id="FsqVde5HYdob05ir-yt6-86" value="+viewOfficerRegistrations()" style="text;strokeColor=none;fillColor=none;align=left;verticalAlign=top;spacingLeft=4;spacingRight=4;overflow=hidden;rotatable=0;points=[[0,0.5],[1,0.5]];portConstraint=eastwest;" vertex="1" parent="FsqVde5HYdob05ir-yt6-76">
          <mxGeometry y="251.36842105263156" width="441" height="27" as="geometry" />
        </mxCell>
        <mxCell id="FsqVde5HYdob05ir-yt6-87" value="+approveOfficerRegistration()" style="text;strokeColor=none;fillColor=none;align=left;verticalAlign=top;spacingLeft=4;spacingRight=4;overflow=hidden;rotatable=0;points=[[0,0.5],[1,0.5]];portConstraint=eastwest;" vertex="1" parent="FsqVde5HYdob05ir-yt6-76">
          <mxGeometry y="278.36842105263156" width="441" height="27" as="geometry" />
        </mxCell>
        <mxCell id="FsqVde5HYdob05ir-yt6-88" value="+rejectOfficerRegistration()" style="text;strokeColor=none;fillColor=none;align=left;verticalAlign=top;spacingLeft=4;spacingRight=4;overflow=hidden;rotatable=0;points=[[0,0.5],[1,0.5]];portConstraint=eastwest;" vertex="1" parent="FsqVde5HYdob05ir-yt6-76">
          <mxGeometry y="305.36842105263156" width="441" height="27" as="geometry" />
        </mxCell>
        <mxCell id="FsqVde5HYdob05ir-yt6-89" value="+approveApplication()" style="text;strokeColor=none;fillColor=none;align=left;verticalAlign=top;spacingLeft=4;spacingRight=4;overflow=hidden;rotatable=0;points=[[0,0.5],[1,0.5]];portConstraint=eastwest;" vertex="1" parent="FsqVde5HYdob05ir-yt6-76">
          <mxGeometry y="332.36842105263156" width="441" height="27" as="geometry" />
        </mxCell>
        <mxCell id="FsqVde5HYdob05ir-yt6-90" value="+rejectApplication()" style="text;strokeColor=none;fillColor=none;align=left;verticalAlign=top;spacingLeft=4;spacingRight=4;overflow=hidden;rotatable=0;points=[[0,0.5],[1,0.5]];portConstraint=eastwest;" vertex="1" parent="FsqVde5HYdob05ir-yt6-76">
          <mxGeometry y="359.36842105263156" width="441" height="27" as="geometry" />
        </mxCell>
        <mxCell id="FsqVde5HYdob05ir-yt6-91" value="+approveWithdrawal()" style="text;strokeColor=none;fillColor=none;align=left;verticalAlign=top;spacingLeft=4;spacingRight=4;overflow=hidden;rotatable=0;points=[[0,0.5],[1,0.5]];portConstraint=eastwest;" vertex="1" parent="FsqVde5HYdob05ir-yt6-76">
          <mxGeometry y="386.36842105263156" width="441" height="27" as="geometry" />
        </mxCell>
        <mxCell id="FsqVde5HYdob05ir-yt6-92" value="+rejectWithdrawal()" style="text;strokeColor=none;fillColor=none;align=left;verticalAlign=top;spacingLeft=4;spacingRight=4;overflow=hidden;rotatable=0;points=[[0,0.5],[1,0.5]];portConstraint=eastwest;" vertex="1" parent="FsqVde5HYdob05ir-yt6-76">
          <mxGeometry y="413.36842105263156" width="441" height="27" as="geometry" />
        </mxCell>
        <mxCell id="FsqVde5HYdob05ir-yt6-93" value="+generateApplicantReport(filter: string)" style="text;strokeColor=none;fillColor=none;align=left;verticalAlign=top;spacingLeft=4;spacingRight=4;overflow=hidden;rotatable=0;points=[[0,0.5],[1,0.5]];portConstraint=eastwest;" vertex="1" parent="FsqVde5HYdob05ir-yt6-76">
          <mxGeometry y="440.36842105263156" width="441" height="27" as="geometry" />
        </mxCell>
        <mxCell id="FsqVde5HYdob05ir-yt6-94" value="+viewAllEnquiries()" style="text;strokeColor=none;fillColor=none;align=left;verticalAlign=top;spacingLeft=4;spacingRight=4;overflow=hidden;rotatable=0;points=[[0,0.5],[1,0.5]];portConstraint=eastwest;" vertex="1" parent="FsqVde5HYdob05ir-yt6-76">
          <mxGeometry y="467.36842105263156" width="441" height="27" as="geometry" />
        </mxCell>
        <mxCell id="FsqVde5HYdob05ir-yt6-95" value="+replyToEnquiry(enquiryID: string, response: string)" style="text;strokeColor=none;fillColor=none;align=left;verticalAlign=top;spacingLeft=4;spacingRight=4;overflow=hidden;rotatable=0;points=[[0,0.5],[1,0.5]];portConstraint=eastwest;" vertex="1" parent="FsqVde5HYdob05ir-yt6-76">
          <mxGeometry y="494.36842105263156" width="441" height="27" as="geometry" />
        </mxCell>
        <mxCell id="FsqVde5HYdob05ir-yt6-96" value="enquire" style="curved=1;startArrow=none;endArrow=open;endSize=12;exitX=0;exitY=0.72;entryX=0.98;entryY=0;rounded=0;" edge="1" parent="1" source="FsqVde5HYdob05ir-yt6-8" target="FsqVde5HYdob05ir-yt6-34">
          <mxGeometry relative="1" as="geometry">
            <Array as="points">
              <mxPoint x="745" y="507" />
              <mxPoint x="745" y="1230" />
            </Array>
          </mxGeometry>
        </mxCell>
        <mxCell id="FsqVde5HYdob05ir-yt6-97" value="1" style="edgeLabel;resizable=0;labelBackgroundColor=none;fontSize=12;align=right;verticalAlign=top;" vertex="1" parent="FsqVde5HYdob05ir-yt6-96">
          <mxGeometry x="-1" relative="1" as="geometry" />
        </mxCell>
        <mxCell id="FsqVde5HYdob05ir-yt6-98" value="0..*" style="edgeLabel;resizable=0;labelBackgroundColor=none;fontSize=12;align=left;verticalAlign=bottom;" vertex="1" parent="FsqVde5HYdob05ir-yt6-96">
          <mxGeometry x="1" relative="1" as="geometry" />
        </mxCell>
        <mxCell id="FsqVde5HYdob05ir-yt6-99" value="apply" style="curved=1;startArrow=none;endArrow=open;endSize=12;exitX=1;exitY=0.74;entryX=1;entryY=0.17;rounded=0;" edge="1" parent="1" source="FsqVde5HYdob05ir-yt6-8" target="FsqVde5HYdob05ir-yt6-19">
          <mxGeometry relative="1" as="geometry">
            <Array as="points">
              <mxPoint x="1463" y="507" />
              <mxPoint x="1463" y="832" />
            </Array>
          </mxGeometry>
        </mxCell>
        <mxCell id="FsqVde5HYdob05ir-yt6-100" value="0..1" style="edgeLabel;resizable=0;labelBackgroundColor=none;fontSize=12;align=right;verticalAlign=top;" vertex="1" parent="FsqVde5HYdob05ir-yt6-99">
          <mxGeometry x="-1" relative="1" as="geometry" />
        </mxCell>
        <mxCell id="FsqVde5HYdob05ir-yt6-101" value="1" style="edgeLabel;resizable=0;labelBackgroundColor=none;fontSize=12;align=left;verticalAlign=bottom;" vertex="1" parent="FsqVde5HYdob05ir-yt6-99">
          <mxGeometry x="1" relative="1" as="geometry" />
        </mxCell>
        <mxCell id="FsqVde5HYdob05ir-yt6-102" value="" style="curved=1;startArrow=none;endArrow=open;endSize=12;exitX=1;exitY=0.91;entryX=0.5;entryY=0;rounded=0;" edge="1" parent="1" source="FsqVde5HYdob05ir-yt6-8" target="FsqVde5HYdob05ir-yt6-31">
          <mxGeometry relative="1" as="geometry">
            <Array as="points">
              <mxPoint x="1323" y="507" />
            </Array>
          </mxGeometry>
        </mxCell>
        <mxCell id="FsqVde5HYdob05ir-yt6-103" value="0..*" style="edgeLabel;resizable=0;labelBackgroundColor=none;fontSize=12;align=right;verticalAlign=top;" vertex="1" parent="FsqVde5HYdob05ir-yt6-102">
          <mxGeometry x="-1" relative="1" as="geometry" />
        </mxCell>
        <mxCell id="FsqVde5HYdob05ir-yt6-104" value="1" style="edgeLabel;resizable=0;labelBackgroundColor=none;fontSize=12;align=left;verticalAlign=bottom;" vertex="1" parent="FsqVde5HYdob05ir-yt6-102">
          <mxGeometry x="1" relative="1" as="geometry" />
        </mxCell>
        <mxCell id="FsqVde5HYdob05ir-yt6-105" value="" style="curved=1;startArrow=none;endArrow=open;endSize=12;exitX=0;exitY=0.6;entryX=0.55;entryY=0;rounded=0;" edge="1" parent="1" source="FsqVde5HYdob05ir-yt6-19" target="FsqVde5HYdob05ir-yt6-34">
          <mxGeometry relative="1" as="geometry">
            <Array as="points">
              <mxPoint x="334" y="1230" />
            </Array>
          </mxGeometry>
        </mxCell>
        <mxCell id="FsqVde5HYdob05ir-yt6-106" value="1" style="edgeLabel;resizable=0;labelBackgroundColor=none;fontSize=12;align=right;verticalAlign=top;" vertex="1" parent="FsqVde5HYdob05ir-yt6-105">
          <mxGeometry x="-1" relative="1" as="geometry" />
        </mxCell>
        <mxCell id="FsqVde5HYdob05ir-yt6-107" value="0..*" style="edgeLabel;resizable=0;labelBackgroundColor=none;fontSize=12;align=left;verticalAlign=bottom;" vertex="1" parent="FsqVde5HYdob05ir-yt6-105">
          <mxGeometry x="1" relative="1" as="geometry" />
        </mxCell>
        <mxCell id="FsqVde5HYdob05ir-yt6-108" value="" style="curved=1;startArrow=none;endArrow=open;endSize=12;exitX=0.05;exitY=1;entryX=0.81;entryY=0;rounded=0;" edge="1" parent="1" source="FsqVde5HYdob05ir-yt6-19" target="FsqVde5HYdob05ir-yt6-62">
          <mxGeometry relative="1" as="geometry">
            <Array as="points">
              <mxPoint x="1033" y="1230" />
            </Array>
          </mxGeometry>
        </mxCell>
        <mxCell id="FsqVde5HYdob05ir-yt6-109" value="1" style="edgeLabel;resizable=0;labelBackgroundColor=none;fontSize=12;align=right;verticalAlign=top;" vertex="1" parent="FsqVde5HYdob05ir-yt6-108">
          <mxGeometry x="-1" relative="1" as="geometry" />
        </mxCell>
        <mxCell id="FsqVde5HYdob05ir-yt6-110" value="0..*" style="edgeLabel;resizable=0;labelBackgroundColor=none;fontSize=12;align=left;verticalAlign=bottom;" vertex="1" parent="FsqVde5HYdob05ir-yt6-108">
          <mxGeometry x="1" relative="1" as="geometry" />
        </mxCell>
        <mxCell id="FsqVde5HYdob05ir-yt6-111" value="" style="curved=1;startArrow=none;endArrow=open;endSize=12;exitX=0.92;exitY=1;entryX=0.5;entryY=0;rounded=0;" edge="1" parent="1" source="FsqVde5HYdob05ir-yt6-19" target="FsqVde5HYdob05ir-yt6-76">
          <mxGeometry relative="1" as="geometry">
            <Array as="points">
              <mxPoint x="1333" y="1230" />
            </Array>
          </mxGeometry>
        </mxCell>
        <mxCell id="FsqVde5HYdob05ir-yt6-112" value="1..*" style="edgeLabel;resizable=0;labelBackgroundColor=none;fontSize=12;align=right;verticalAlign=top;" vertex="1" parent="FsqVde5HYdob05ir-yt6-111">
          <mxGeometry x="-1" relative="1" as="geometry" />
        </mxCell>
        <mxCell id="FsqVde5HYdob05ir-yt6-113" value="1" style="edgeLabel;resizable=0;labelBackgroundColor=none;fontSize=12;align=left;verticalAlign=bottom;" vertex="1" parent="FsqVde5HYdob05ir-yt6-111">
          <mxGeometry x="1" relative="1" as="geometry" />
        </mxCell>
        <mxCell id="FsqVde5HYdob05ir-yt6-114" value="" style="curved=1;startArrow=none;endArrow=open;endSize=12;exitX=0.5;exitY=1;entryX=0.87;entryY=0;rounded=0;" edge="1" parent="1" source="FsqVde5HYdob05ir-yt6-31" target="FsqVde5HYdob05ir-yt6-19">
          <mxGeometry relative="1" as="geometry">
            <Array as="points">
              <mxPoint x="1323" y="832" />
            </Array>
          </mxGeometry>
        </mxCell>
        <mxCell id="FsqVde5HYdob05ir-yt6-115" value="1" style="edgeLabel;resizable=0;labelBackgroundColor=none;fontSize=12;align=right;verticalAlign=top;" vertex="1" parent="FsqVde5HYdob05ir-yt6-114">
          <mxGeometry x="-1" relative="1" as="geometry" />
        </mxCell>
        <mxCell id="FsqVde5HYdob05ir-yt6-116" value="1" style="edgeLabel;resizable=0;labelBackgroundColor=none;fontSize=12;align=left;verticalAlign=bottom;" vertex="1" parent="FsqVde5HYdob05ir-yt6-114">
          <mxGeometry x="1" relative="1" as="geometry" />
        </mxCell>
        <mxCell id="FsqVde5HYdob05ir-yt6-117" value="" style="curved=1;startArrow=none;endArrow=open;endSize=12;exitX=0.39;exitY=1;entryX=0.5;entryY=0;rounded=0;" edge="1" parent="1" source="FsqVde5HYdob05ir-yt6-40" target="FsqVde5HYdob05ir-yt6-48">
          <mxGeometry relative="1" as="geometry">
            <Array as="points">
              <mxPoint x="345" y="507" />
            </Array>
          </mxGeometry>
        </mxCell>
        <mxCell id="FsqVde5HYdob05ir-yt6-118" value="1" style="edgeLabel;resizable=0;labelBackgroundColor=none;fontSize=12;align=right;verticalAlign=top;" vertex="1" parent="FsqVde5HYdob05ir-yt6-117">
          <mxGeometry x="-1" relative="1" as="geometry" />
        </mxCell>
        <mxCell id="FsqVde5HYdob05ir-yt6-119" value="1" style="edgeLabel;resizable=0;labelBackgroundColor=none;fontSize=12;align=left;verticalAlign=bottom;" vertex="1" parent="FsqVde5HYdob05ir-yt6-117">
          <mxGeometry x="1" relative="1" as="geometry" />
        </mxCell>
        <mxCell id="FsqVde5HYdob05ir-yt6-120" value="" style="curved=1;startArrow=none;endArrow=open;endSize=12;exitX=0.88;exitY=1;entryX=0.5;entryY=0;rounded=0;" edge="1" parent="1" source="FsqVde5HYdob05ir-yt6-40" target="FsqVde5HYdob05ir-yt6-57">
          <mxGeometry relative="1" as="geometry">
            <Array as="points">
              <mxPoint x="607" y="507" />
            </Array>
          </mxGeometry>
        </mxCell>
        <mxCell id="FsqVde5HYdob05ir-yt6-121" value="1" style="edgeLabel;resizable=0;labelBackgroundColor=none;fontSize=12;align=right;verticalAlign=top;" vertex="1" parent="FsqVde5HYdob05ir-yt6-120">
          <mxGeometry x="-1" relative="1" as="geometry" />
        </mxCell>
        <mxCell id="FsqVde5HYdob05ir-yt6-122" value="1" style="edgeLabel;resizable=0;labelBackgroundColor=none;fontSize=12;align=left;verticalAlign=bottom;" vertex="1" parent="FsqVde5HYdob05ir-yt6-120">
          <mxGeometry x="1" relative="1" as="geometry" />
        </mxCell>
        <mxCell id="FsqVde5HYdob05ir-yt6-123" value="" style="curved=1;startArrow=none;endArrow=open;endSize=12;exitX=1;exitY=0.84;entryX=0.49;entryY=0;rounded=0;" edge="1" parent="1" source="FsqVde5HYdob05ir-yt6-40" target="FsqVde5HYdob05ir-yt6-62">
          <mxGeometry relative="1" as="geometry">
            <Array as="points">
              <mxPoint x="795" y="507" />
              <mxPoint x="795" y="1230" />
            </Array>
          </mxGeometry>
        </mxCell>
        <mxCell id="FsqVde5HYdob05ir-yt6-124" value="1" style="edgeLabel;resizable=0;labelBackgroundColor=none;fontSize=12;align=left;verticalAlign=top;" vertex="1" parent="FsqVde5HYdob05ir-yt6-123">
          <mxGeometry x="-1" relative="1" as="geometry" />
        </mxCell>
        <mxCell id="FsqVde5HYdob05ir-yt6-125" value="0..*" style="edgeLabel;resizable=0;labelBackgroundColor=none;fontSize=12;align=right;verticalAlign=bottom;" vertex="1" parent="FsqVde5HYdob05ir-yt6-123">
          <mxGeometry x="1" relative="1" as="geometry" />
        </mxCell>
        <mxCell id="FsqVde5HYdob05ir-yt6-126" value="" style="curved=1;startArrow=none;endArrow=open;endSize=12;exitX=1;exitY=0.72;entryX=0.5;entryY=0;rounded=0;" edge="1" parent="1" source="FsqVde5HYdob05ir-yt6-40" target="FsqVde5HYdob05ir-yt6-72">
          <mxGeometry relative="1" as="geometry">
            <Array as="points">
              <mxPoint x="1010" y="507" />
            </Array>
          </mxGeometry>
        </mxCell>
        <mxCell id="FsqVde5HYdob05ir-yt6-127" value="1..*" style="edgeLabel;resizable=0;labelBackgroundColor=none;fontSize=12;align=left;verticalAlign=top;" vertex="1" parent="FsqVde5HYdob05ir-yt6-126">
          <mxGeometry x="-1" relative="1" as="geometry" />
        </mxCell>
        <mxCell id="FsqVde5HYdob05ir-yt6-128" value="1" style="edgeLabel;resizable=0;labelBackgroundColor=none;fontSize=12;align=right;verticalAlign=bottom;" vertex="1" parent="FsqVde5HYdob05ir-yt6-126">
          <mxGeometry x="1" relative="1" as="geometry" />
        </mxCell>
        <mxCell id="FsqVde5HYdob05ir-yt6-129" value="" style="curved=1;startArrow=none;endArrow=open;endSize=12;exitX=0.12;exitY=1;entryX=0.5;entryY=0;rounded=0;" edge="1" parent="1" source="FsqVde5HYdob05ir-yt6-40" target="FsqVde5HYdob05ir-yt6-69">
          <mxGeometry relative="1" as="geometry">
            <Array as="points">
              <mxPoint x="201" y="507" />
            </Array>
          </mxGeometry>
        </mxCell>
        <mxCell id="FsqVde5HYdob05ir-yt6-130" value="1" style="edgeLabel;resizable=0;labelBackgroundColor=none;fontSize=12;align=right;verticalAlign=top;" vertex="1" parent="FsqVde5HYdob05ir-yt6-129">
          <mxGeometry x="-1" relative="1" as="geometry" />
        </mxCell>
        <mxCell id="FsqVde5HYdob05ir-yt6-131" value="1" style="edgeLabel;resizable=0;labelBackgroundColor=none;fontSize=12;align=left;verticalAlign=bottom;" vertex="1" parent="FsqVde5HYdob05ir-yt6-129">
          <mxGeometry x="1" relative="1" as="geometry" />
        </mxCell>
        <mxCell id="FsqVde5HYdob05ir-yt6-132" value="" style="curved=1;startArrow=none;endArrow=open;endSize=12;exitX=0.5;exitY=1;entryX=0.01;entryY=0;rounded=0;" edge="1" parent="1" source="FsqVde5HYdob05ir-yt6-72" target="FsqVde5HYdob05ir-yt6-19">
          <mxGeometry relative="1" as="geometry">
            <Array as="points">
              <mxPoint x="1010" y="832" />
            </Array>
          </mxGeometry>
        </mxCell>
        <mxCell id="FsqVde5HYdob05ir-yt6-133" value="1" style="edgeLabel;resizable=0;labelBackgroundColor=none;fontSize=12;align=right;verticalAlign=top;" vertex="1" parent="FsqVde5HYdob05ir-yt6-132">
          <mxGeometry x="-1" relative="1" as="geometry" />
        </mxCell>
        <mxCell id="FsqVde5HYdob05ir-yt6-134" value="1" style="edgeLabel;resizable=0;labelBackgroundColor=none;fontSize=12;align=left;verticalAlign=bottom;" vertex="1" parent="FsqVde5HYdob05ir-yt6-132">
          <mxGeometry x="1" relative="1" as="geometry" />
        </mxCell>
        <mxCell id="FsqVde5HYdob05ir-yt6-135" value="" style="curved=1;startArrow=none;endArrow=open;endSize=12;exitX=0.5;exitY=1;entryX=0.42;entryY=0;rounded=0;" edge="1" parent="1" source="FsqVde5HYdob05ir-yt6-69" target="FsqVde5HYdob05ir-yt6-34">
          <mxGeometry relative="1" as="geometry">
            <Array as="points">
              <mxPoint x="201" y="1230" />
            </Array>
          </mxGeometry>
        </mxCell>
        <mxCell id="FsqVde5HYdob05ir-yt6-136" value="1" style="edgeLabel;resizable=0;labelBackgroundColor=none;fontSize=12;align=right;verticalAlign=top;" vertex="1" parent="FsqVde5HYdob05ir-yt6-135">
          <mxGeometry x="-1" relative="1" as="geometry" />
        </mxCell>
        <mxCell id="FsqVde5HYdob05ir-yt6-137" value="1" style="edgeLabel;resizable=0;labelBackgroundColor=none;fontSize=12;align=left;verticalAlign=bottom;" vertex="1" parent="FsqVde5HYdob05ir-yt6-135">
          <mxGeometry x="1" relative="1" as="geometry" />
        </mxCell>
      </root>
    </mxGraphModel>
  </diagram>
</mxfile>
